<mxfile host="app.diagrams.net" agent="Mozilla/5.0 (Macintosh; Intel Mac OS X 10_15_7) AppleWebKit/537.36 (KHTML, like Gecko) Chrome/129.0.0.0 Safari/537.36" version="24.7.16">
  <diagram name="Page-1" id="-PX1R2qppL1gEZZh_5vd">
    <mxGraphModel grid="1" page="1" gridSize="10" guides="1" tooltips="1" connect="1" arrows="1" fold="1" pageScale="1" pageWidth="850" pageHeight="1100" math="0" shadow="0">
      <root>
        <mxCell id="0" />
        <mxCell id="1" parent="0" />
        <mxCell id="r4o2QhAOJ-FlJYHsr0aW-1" value="" style="rounded=0;whiteSpace=wrap;html=1;" vertex="1" parent="1">
          <mxGeometry x="10" y="10" width="390" height="840" as="geometry" />
        </mxCell>
        <mxCell id="r4o2QhAOJ-FlJYHsr0aW-17" value="Backpack" style="rounded=0;whiteSpace=wrap;html=1;" vertex="1" parent="1">
          <mxGeometry x="160" y="20" width="80" height="80" as="geometry" />
        </mxCell>
        <mxCell id="r4o2QhAOJ-FlJYHsr0aW-2" value="Restart" style="rounded=0;whiteSpace=wrap;html=1;" vertex="1" parent="1">
          <mxGeometry x="310" y="20" width="80" height="80" as="geometry" />
        </mxCell>
        <mxCell id="r4o2QhAOJ-FlJYHsr0aW-6" value="Pokemon" style="rounded=0;whiteSpace=wrap;html=1;" vertex="1" parent="1">
          <mxGeometry x="20" y="20" width="130" height="80" as="geometry" />
        </mxCell>
        <mxCell id="r4o2QhAOJ-FlJYHsr0aW-7" value="Screen" style="rounded=0;whiteSpace=wrap;html=1;" vertex="1" parent="1">
          <mxGeometry x="20" y="110" width="370" height="430" as="geometry" />
        </mxCell>
        <mxCell id="r4o2QhAOJ-FlJYHsr0aW-8" value="Choice 1" style="rounded=0;whiteSpace=wrap;html=1;" vertex="1" parent="1">
          <mxGeometry x="20" y="560" width="170" height="60" as="geometry" />
        </mxCell>
        <mxCell id="r4o2QhAOJ-FlJYHsr0aW-9" value="Choice 2" style="rounded=0;whiteSpace=wrap;html=1;" vertex="1" parent="1">
          <mxGeometry x="220" y="560" width="170" height="60" as="geometry" />
        </mxCell>
        <mxCell id="r4o2QhAOJ-FlJYHsr0aW-13" value="&lt;div&gt;Pokemon&lt;br&gt;1......&lt;/div&gt;&lt;div&gt;2......&lt;/div&gt;&lt;div&gt;3......&lt;/div&gt;&lt;div&gt;4.......&lt;/div&gt;&lt;div&gt;5.......&lt;/div&gt;&lt;div&gt;6.......&lt;/div&gt;&lt;div&gt;7.......&lt;/div&gt;&lt;div&gt;8........&lt;/div&gt;&lt;div&gt;9........&lt;/div&gt;" style="rounded=0;whiteSpace=wrap;html=1;" vertex="1" parent="1">
          <mxGeometry x="440" y="20" width="180" height="530" as="geometry" />
        </mxCell>
        <mxCell id="r4o2QhAOJ-FlJYHsr0aW-14" value="Restart?&lt;div&gt;&lt;br&gt;&lt;/div&gt;&lt;div&gt;&lt;br&gt;&lt;/div&gt;&lt;div&gt;&amp;nbsp; &amp;nbsp; &amp;nbsp; &amp;nbsp;&amp;nbsp;&lt;/div&gt;" style="rounded=0;whiteSpace=wrap;html=1;" vertex="1" parent="1">
          <mxGeometry x="660" y="20" width="180" height="150" as="geometry" />
        </mxCell>
        <mxCell id="r4o2QhAOJ-FlJYHsr0aW-15" value="Yes" style="rounded=0;whiteSpace=wrap;html=1;" vertex="1" parent="1">
          <mxGeometry x="670" y="100" width="70" height="60" as="geometry" />
        </mxCell>
        <mxCell id="r4o2QhAOJ-FlJYHsr0aW-16" value="No" style="rounded=0;whiteSpace=wrap;html=1;" vertex="1" parent="1">
          <mxGeometry x="760" y="100" width="70" height="60" as="geometry" />
        </mxCell>
        <mxCell id="5XoueeS47XUHATJhXsRx-1" value="Pokemon" style="shape=umlActor;verticalLabelPosition=bottom;verticalAlign=top;html=1;outlineConnect=0;" vertex="1" parent="1">
          <mxGeometry x="70" y="410" width="30" height="60" as="geometry" />
        </mxCell>
        <mxCell id="5XoueeS47XUHATJhXsRx-4" value="Pokemon" style="shape=umlActor;verticalLabelPosition=bottom;verticalAlign=top;html=1;outlineConnect=0;" vertex="1" parent="1">
          <mxGeometry x="300" y="160" width="30" height="60" as="geometry" />
        </mxCell>
      </root>
    </mxGraphModel>
  </diagram>
</mxfile>
